#!OML:ASF H:\Terrain\Patient Classification 1\Terrain2\Thursday\justin.ASF
:FULLY-SPECIFIED
:DEGREES
3612
root 6.96443 17.6419 -21.5399 1335.24 79.5549 -824.923
lowerback 3.52832 0.545845 7.28596
upperback 2.26084 1.14739 5.38868
thorax 0.380494 0.70272 1.44734
lowerneck -15.4763 -3.04543 -8.11307
upperneck 28.7281 -2.03484 2.1671
head 12.1714 -1.27946 1.95283
rclavicle 1.56046e-014 5.00937e-014
rhumerus -33.0226 -15.557 -75.3899
rradius 24.4604
rwrist -7.85
rhand -20.9689 13.3839
rfingers 7.12502
rthumb 5.40436 -16.5272
lclavicle 1.56046e-014 5.00937e-014
lhumerus -37.2607 6.56952 85.1014
lradius 25.395
lwrist -5.46517
lhand -13.2792 21.4727
lfingers 7.12502
lthumb 12.824 51.0588
rfemur -8.87586 -7.29148 34.4439
rtibia 18.6537
rfoot -8.39049 0.376244
rtoes 12.1054
lfemur -12.1198 -1.03515 -7.14038
ltibia 63.4509
lfoot 7.9159 -11.0577
ltoes 4.58611
3613
root 7.09306 17.6347 -21.5428 1335.38 79.8823 -824.784
lowerback 3.44756 0.732634 7.17772
upperback 2.35283 1.36117 5.09397
thorax 0.53205 0.808818 1.19832
lowerneck -15.3997 -3.10814 -7.74189
upperneck 28.6059 -2.26233 2.2172
head 12.1118 -1.3341 1.87304
rclavicle 2.6339e-015 3.18055e-014
rhumerus -32.7168 -15.2913 -75.7815
rradius 24.7801
rwrist -8.94417
rhand -21.1614 13.4588
rfingers 7.12502
rthumb 5.21849 -16.4569
lclavicle 2.6339e-015 3.18055e-014
lhumerus -37.1727 6.31237 85.0172
lradius 25.5996
lwrist -4.8467
lhand -13.7082 21.7099
lfingers 7.12502
lthumb 12.4105 51.3214
rfemur -8.22963 -7.5306 34.0714
rtibia 18.2393
rfoot -8.55292 0.611255
rtoes 11.1015
lfemur -13.3599 -0.960372 -7.44161
ltibia 64.2254
lfoot 6.53022 -10.1858
ltoes 6.22867
3614
root 7.22426 17.6353 -21.5478 1336.45 80.0176 -823.753
lowerback 3.37588 0.871515 7.18949
upperback 2.34001 1.53863 5.0973
thorax 0.564877 0.897701 1.19204
lowerneck -15.2843 -3.22601 -8.03465
upperneck 28.7584 -2.37089 2.31351
head 12.1638 -1.39975 1.94647
rclavicle -5.96354e-015 4.29375e-014
rhumerus -32.4649 -14.7995 -75.8717
rradius 25.0285
rwrist -9.60923
rhand -21.095 13.3309
rfingers 7.12502
rthumb 5.28259 -16.5833
lclavicle -5.96354e-015 4.29375e-014
lhumerus -37.3212 6.42674 85.2059
lradius 25.8444
lwrist -4.38891
lhand -14.1102 21.7421
lfingers 7.12502
lthumb 12.0228 51.3768
rfemur -7.72368 -7.63675 33.9173
rtibia 18.1899
rfoot -8.88569 0.826185
rtoes 10.7671
lfemur -14.5734 -0.681284 -7.52037
ltibia 64.8058
lfoot 4.99177 -9.57768
ltoes 5.36801
3615
root 7.34839 17.6241 -21.5393 1338.43 79.6172 -821.654
lowerback 3.53941 0.961741 7.53202
upperback 2.34907 1.6988 5.27582
thorax 0.492758 0.983901 1.18065
lowerneck -15.4324 -3.33895 -8.21845
upperneck 29.1758 -2.4604 2.36909
head 12.3734 -1.45164 1.99097
rclavicle 3.8266e-014 5.1684e-014
rhumerus -32.2539 -15.1283 -75.7187
rradius 25.1526
rwrist -9.27666
rhand -20.8256 13.4834
rfingers 7.12502
rthumb 5.54276 -16.4241
lclavicle 3.8266e-014 5.1684e-014
lhumerus -37.435 6.24283 85.4242
lradius 26.1136
lwrist -3.48034
lhand -14.2115 21.8078
lfingers 7.12502
lthumb 11.9252 51.4482
rfemur -7.10294 -6.88042 34.3967
rtibia 18.3291
rfoot -9.24166 0.404687
rtoes 12.6292
lfemur -15.6668 -0.264683 -6.82666
ltibia 65.2557
lfoot 3.53444 -8.96776
ltoes 3.45427
3616
root 7.46955 17.6203 -21.531 1340.57 79.4376 -819.485
lowerback 3.58871 1.06071 7.68284
upperback 2.38091 1.84135 5.31372
thorax 0.506936 1.0587 1.13265
lowerneck -15.5761 -3.34918 -8.21129
upperneck 29.4838 -2.48254 2.47513
head 12.5302 -1.44667 2.03122
rclavicle -1.15295e-014 -2.06736e-014
rhumerus -32.0125 -14.521 -76.0042
rradius 25.5465
rwrist -9.77279
rhand -20.8169 13.4637
rfingers 7.12502
rthumb 5.55115 -16.4436
lclavicle -1.15295e-014 -2.06736e-014
lhumerus -37.4827 6.02234 85.4992
lradius 26.3914
lwrist -2.45253
lhand -14.1798 21.7222
lfingers 7.12502
lthumb 11.9557 51.3608
rfemur -6.62084 -5.88645 34.597
rtibia 18.7027
rfoot -9.88092 0.10386
rtoes 16.7065
lfemur -16.7499 0.151541 -6.42548
ltibia 65.4442
lfoot 2.05005 -8.23394
ltoes 1.72482
3617
root 7.60748 17.6197 -21.527 1341.07 79.7033 -818.904
lowerback 3.53348 1.1289 7.3913
upperback 2.41988 1.91061 5.29794
thorax 0.571214 1.09088 1.27716
lowerneck -15.4487 -3.35619 -8.4655
upperneck 29.5404 -2.45921 2.60147
head 12.5329 -1.44661 2.12906
rclavicle -4.01545e-014 -6.36111e-014
rhumerus -31.8522 -13.216 -76.291
rradius 26.154
rwrist -10.8615
rhand -20.9196 13.4495
rfingers 7.12502
rthumb 5.45198 -16.4604
lclavicle -4.01545e-014 -6.36111e-014
lhumerus -37.6487 6.05936 85.6691
lradius 26.7416
lwrist -1.7956
lhand -14.4625 21.5961
lfingers 7.12502
lthumb 11.6832 51.2503
rfemur -6.16546 -6.3738 34.2481
rtibia 19.0478
rfoot -10.5845 0.633951
rtoes 16.8365
lfemur -17.6316 0.330509 -6.68561
ltibia 65.4338
lfoot 0.433399 -7.89526
ltoes 1.2015
3618
root 7.7388 17.6154 -21.5282 1341.09 79.8787 -818.851
lowerback 3.54935 1.20699 7.33092
upperback 2.44695 2.00811 5.21398
thorax 0.594427 1.13858 1.22104
lowerneck -15.35 -3.37659 -8.60413
upperneck 29.4641 -2.49586 2.72342
head 12.4881 -1.46171 2.19343
rclavicle 8.34896e-015 1.82882e-014
rhumerus -31.636 -13.1398 -76.261
rradius 26.5487
rwrist -11.0412
rhand -20.6352 13.5959
rfingers 7.12502
rthumb 5.72652 -16.3068
lclavicle 8.34896e-015 1.82882e-014
lhumerus -37.6822 5.78245 85.8905
lradius 27.1224
lwrist -1.05092
lhand -14.7778 21.7016
lfingers 7.12502
lthumb 11.3791 51.3728
rfemur -5.75681 -7.01262 33.9649
rtibia 19.3114
rfoot -11.185 1.22798
rtoes 17.1521
lfemur -18.6208 0.397855 -6.87615
ltibia 65.3326
lfoot -0.952043 -7.70615
ltoes 1.26353
3619
root 7.84491 17.5905 -21.5331 1341.51 79.7156 -818.558
lowerback 3.73308 1.29831 7.68313
upperback 2.34954 2.1653 5.09047
thorax 0.414381 1.21386 0.887381
lowerneck -15.3083 -3.44578 -8.59597
upperneck 29.4715 -2.68606 2.99152
head 12.4972 -1.5103 2.26647
rclavicle 1.00386e-014 2.54444e-014
rhumerus -31.4863 -13.5971 -76.3344
rradius 26.8771
rwrist -10.7829
rhand -20.3291 13.3422
rfingers 7.12502
rthumb 6.02207 -16.5522
lclavicle 1.00386e-014 2.54444e-014
lhumerus -37.639 5.40524 85.8936
lradius 27.3912
lwrist -0.48135
lhand -14.8744 21.7578
lfingers 7.12502
lthumb 11.2859 51.4342
rfemur -5.48718 -6.89411 34.1924
rtibia 19.1931
rfoot -11.402 0.93924
rtoes 15.6002
lfemur -20.0479 0.476348 -6.6561
ltibia 65.3042
lfoot -2.08017 -7.62954
ltoes 0.861501
3620
root 7.95479 17.5484 -21.5261 1341.2 78.957 -818.828
lowerback 4.03652 1.31478 8.45972
upperback 2.26876 2.26739 5.14814
thorax 0.194 1.26862 0.506724
lowerneck -15.3544 -3.59696 -8.61063
upperneck 29.6171 -2.98418 3.28838
head 12.5909 -1.60522 2.33998
rclavicle -2.74323e-014 -3.61788e-014
rhumerus -31.296 -14.2958 -76.3703
rradius 26.9778
rwrist -10.3709
rhand -20.3871 13.3684
rfingers 7.12502
rthumb 5.96614 -16.5276
lclavicle -2.74323e-014 -3.61788e-014
lhumerus -37.6119 5.12875 85.7755
lradius 27.67
lwrist -0.154405
lhand -14.597 21.508
lfingers 7.12502
lthumb 11.5534 51.1695
rfemur -5.08692 -6.47912 35.0905
rtibia 19.016
rfoot -11.5019 0.168669
rtoes 13.7563
lfemur -21.3938 0.511012 -5.69746
ltibia 65.2551
lfoot -3.17335 -7.98052
ltoes 0.108678
3621
root 8.07828 17.5143 -21.5221 1341.88 78.0094 -818.028
lowerback 4.17057 1.30514 9.45176
upperback 2.33724 2.32535 5.36755
thorax 0.22553 1.31743 0.188223
lowerneck -15.5973 -3.66964 -8.75812
upperneck 29.757 -3.07705 3.45852
head 12.7123 -1.64142 2.4174
rclavicle 1.25234e-014 -4.13472e-014
rhumerus -30.8919 -14.88 -76.1804
rradius 26.9675
rwrist -9.83184
rhand -20.3452 13.7984
rfingers 7.12502
rthumb 6.0065 -16.0965
lclavicle 1.25234e-014 -4.13472e-014
lhumerus -37.4842 5.27903 85.7346
lradius 27.9888
lwrist 0.0310098
lhand -14.3442 21.2495
lfingers 7.12502
lthumb 11.7972 50.8973
rfemur -4.60078 -6.01428 36.1006
rtibia 18.7168
rfoot -11.4589 -0.0784631
rtoes 15.3797
lfemur -22.4462 0.73434 -4.50419
ltibia 65.0156
lfoot -4.31968 -8.16584
ltoes 1.3451
